<svg width="41" height="41" viewBox="0 0 41 41" fill="none" xmlns="http://www.w3.org/2000/svg">
<g clip-path="url(#clip0_9_1041)">
<path d="M40.5 20.5C40.5 9.4543 31.5457 0.5 20.5 0.5C9.4543 0.5 0.5 9.4543 0.5 20.5C0.5 31.5457 9.4543 40.5 20.5 40.5C31.5457 40.5 40.5 31.5457 40.5 20.5Z" fill="#F2F2F2"/>
<mask id="mask0_9_1041" style="mask-type:luminance" maskUnits="userSpaceOnUse" x="10" y="10" width="21" height="21">
<path d="M30.5 10.5H10.5V30.5H30.5V10.5Z" fill="white"/>
</mask>
<g mask="url(#mask0_9_1041)">
<path d="M30.1 20.7274C30.1 20.0183 30.0364 19.3365 29.9182 18.6819H20.5V22.5501H25.8818C25.65 23.8001 24.9455 24.8592 23.8864 25.5683V28.0774H27.1182C29.0091 26.3365 30.1 23.7728 30.1 20.7274Z" fill="#4285F4"/>
<path d="M20.5 30.4999C23.2 30.4999 25.4636 29.6044 27.1181 28.0772L23.8863 25.5681C22.9909 26.1681 21.8454 26.5226 20.5 26.5226C17.8954 26.5226 15.6909 24.7635 14.9045 22.3999H11.5636V24.9908C13.2091 28.259 16.5909 30.4999 20.5 30.4999Z" fill="#34A853"/>
<path d="M14.9045 22.3999C14.7045 21.7999 14.5909 21.159 14.5909 20.4999C14.5909 19.8408 14.7045 19.1999 14.9045 18.5999V16.009H11.5636C10.8864 17.359 10.5 18.8863 10.5 20.4999C10.5 22.1135 10.8864 23.6408 11.5636 24.9908L14.9045 22.3999Z" fill="#FBBC04"/>
<path d="M20.5 14.4773C21.9681 14.4773 23.2863 14.9818 24.3227 15.9727L27.1909 13.1045C25.4591 11.4909 23.1954 10.5 20.5 10.5C16.5909 10.5 13.2091 12.7409 11.5636 16.0091L14.9045 18.6C15.6909 16.2364 17.8954 14.4773 20.5 14.4773Z" fill="#E94235"/>
</g>
</g>
<defs>
<clipPath id="clip0_9_1041">
<rect width="40" height="40" fill="white" transform="translate(0.5 0.5)"/>
</clipPath>
</defs>
</svg>
